<svg id="Layer_2" data-name="Layer 2" xmlns="http://www.w3.org/2000/svg" viewBox="0 0 183.59 152.16"><defs><style>.cls-1{fill:#fff;stroke:#fff;stroke-miterlimit:10;}.cls-2{fill:#58b1f1;}</style></defs><path class="cls-1" d="M334.31,668.51a58.34,58.34,0,0,0,36.78,19,7.64,7.64,0,0,1,3.35.87c2.14,1.38,2.21,4.4,2.21,6.94,0,19.32,8.51,39.36,19.87,53.69,24.54-4.13,50.26-8.18,73.85-.26a209.62,209.62,0,0,1-49.05-26.85c-20.58-15.16-39.29-36.07-41.93-61.49A95.23,95.23,0,0,0,396,686.35c25.53-6.78,45.07-31.67,45.6-58.08-1.59,6.22-7.57,10.44-13.73,12.27s-12.68,1.8-19,2.71a65.28,65.28,0,0,0-28.85,11.65c-4.91-5.27-12.08-7.81-19.14-9.18s-14.32-1.76-21.27-3.65c-4.54-1.23-8.34-3.42-12.47-5.41s-7.09.11-6.22,4.7A57.51,57.51,0,0,0,334.31,668.51Z" transform="translate(-320.18 -623.98)"/><path class="cls-2" d="M349,775.59c21.86,2.85,43.25-6.16,64.72-11.13a179.87,179.87,0,0,1,90.09,2.44,58.41,58.41,0,0,0-23.3-14c-9.25-2.9-19.05-3.43-28.74-3.95-7.57-.4-15.16-.81-22.71-.16-17.13,1.46-33.29,8.2-49.82,12.89a212.07,212.07,0,0,1-34.78,6.77c-5.15.56-10.27.6-15.41.68C334.56,773,342.35,774.73,349,775.59Z" transform="translate(-320.18 -623.98)"/></svg>